<svg width="81" height="81" viewBox="0 0 81 81" fill="none" xmlns="http://www.w3.org/2000/svg">
<g id="Facebook">
<path id="Vector" d="M35.4375 70.5375C21.0938 68.0062 10.125 55.5187 10.125 40.5C10.125 23.7937 23.7938 10.125 40.5 10.125C57.2062 10.125 70.875 23.7937 70.875 40.5C70.875 55.5187 59.9062 68.0062 45.5625 70.5375L43.875 69.1875H37.125L35.4375 70.5375Z" fill="url(#paint0_linear_79_741)"/>
<path id="Vector_2" d="M52.3125 48.9375L53.6625 40.5H45.5625V34.5938C45.5625 32.2313 46.4063 30.375 50.1188 30.375H54V22.6125C51.8062 22.275 49.4438 21.9375 47.25 21.9375C40.3313 21.9375 35.4375 26.1563 35.4375 33.75V40.5H27.8438V48.9375H35.4375V70.3688C37.125 70.7063 38.8125 70.875 40.5 70.875C42.1875 70.875 43.875 70.7063 45.5625 70.3688V48.9375H52.3125Z" fill="white"/>
</g>
<defs>
<linearGradient id="paint0_linear_79_741" x1="40.5" y1="68.7724" x2="40.5" y2="10.125" gradientUnits="userSpaceOnUse">
<stop stop-color="#0062E0"/>
<stop offset="1" stop-color="#19AFFF"/>
</linearGradient>
</defs>
</svg>
