<svg width="59" height="59" viewBox="0 0 59 59" fill="none" xmlns="http://www.w3.org/2000/svg">
<g id="Group">
<path id="Shape" fill-rule="evenodd" clip-rule="evenodd" d="M57.04 30.1521C57.04 28.1179 56.8575 26.1619 56.5185 24.2842H29.5V35.381H44.9391C44.2741 38.967 42.2529 42.0053 39.2146 44.0395V51.2374H48.4859C53.9105 46.2432 57.04 38.8887 57.04 30.1521Z" fill="#4285F4"/>
<path id="Shape_2" fill-rule="evenodd" clip-rule="evenodd" d="M29.5 58.1876C37.2456 58.1876 43.7395 55.6188 48.4859 51.2374L39.2147 44.0394C36.6458 45.7607 33.3598 46.7778 29.5 46.7778C22.0282 46.7778 15.7039 41.7314 13.448 34.9507H3.86377V42.3834C8.58417 51.759 18.2858 58.1876 29.5 58.1876Z" fill="#34A853"/>
<path id="Shape_3" fill-rule="evenodd" clip-rule="evenodd" d="M13.4481 34.9508C12.8743 33.2295 12.5483 31.3909 12.5483 29.5001C12.5483 27.6094 12.8743 25.7708 13.4481 24.0495V16.6168H3.86381C1.92088 20.4896 0.8125 24.871 0.8125 29.5001C0.8125 34.1293 1.92088 38.5106 3.86381 42.3835L13.4481 34.9508Z" fill="#FBBC05"/>
<path id="Shape_4" fill-rule="evenodd" clip-rule="evenodd" d="M29.5 12.2224C33.7119 12.2224 37.4934 13.6699 40.4665 16.5125L48.6946 8.28442C43.7264 3.6553 37.2326 0.812622 29.5 0.812622C18.2858 0.812622 8.58417 7.24124 3.86377 16.6169L13.448 24.0495C15.7039 17.2688 22.0282 12.2224 29.5 12.2224Z" fill="#EA4335"/>
</g>
</svg>
